<svg width="16" height="16" viewBox="0 0 16 16" fill="none" xmlns="http://www.w3.org/2000/svg">
<path d="M5.06301 9C5.28503 9.86261 6.06808 10.5 7 10.5H7.66668L7.94449 13.0003C6.62737 13.0148 5.02637 13.5393 3.60765 14.1458L3.33334 12.5H4C4.93192 12.5 5.71497 11.8626 5.93699 11C5.97812 10.8402 6 10.6726 6 10.5H5C4.06808 10.5 3.28503 11.1374 3.06301 12C3.02188 12.1598 3 12.3274 3 12.5C3 12.3274 2.97812 12.1598 2.93699 12C2.71497 11.1374 1.93192 10.5 1 10.5H0C0 10.6726 0.0218766 10.8402 0.0630088 11C0.28503 11.8626 1.06808 12.5 2 12.5H2.66668L2.98686 14.4211C2.40363 14.6888 1.86711 14.9598 1.41456 15.2C0.556248 15.6555 0 16 0 16H16C16 16 15.4438 15.6555 14.5854 15.2C14.2829 15.0394 13.9428 14.8651 13.5764 14.6872L13.3333 12.5H14C14.9319 12.5 15.715 11.8626 15.937 11C15.9781 10.8402 16 10.6726 16 10.5H15C14.0681 10.5 13.285 11.1374 13.063 12C13.0219 12.1598 13 12.3274 13 12.5C13 12.3274 12.9781 12.1598 12.937 12C12.715 11.1374 11.9319 10.5 11 10.5H10C10 10.6726 10.0219 10.8402 10.063 11C10.285 11.8626 11.0681 12.5 12 12.5H12.6667L12.873 14.3573C11.5338 13.7519 9.96955 13.1778 8.61492 13.0342L8.33334 10.5H9C9.93192 10.5 10.715 9.86261 10.937 9C10.9781 8.84019 11 8.67265 11 8.5H10C9.06808 8.5 8.28503 9.13739 8.06301 10C8.02188 10.1598 8 10.3274 8 10.5C8 10.3274 7.97812 10.1598 7.93699 10C7.71497 9.13739 6.93192 8.5 6 8.5H5C5 8.67265 5.02188 8.84019 5.06301 9ZM6 9C6.65311 9 7.20873 9.4174 7.41465 10H7C6.34689 10 5.79127 9.5826 5.58535 9H6ZM8.58535 10C8.79127 9.4174 9.34689 9 10 9H10.4146C10.2087 9.5826 9.65311 10 9 10H8.58535ZM1 11C1.65311 11 2.20873 11.4174 2.41465 12H2C1.34689 12 0.791271 11.5826 0.585353 11H1ZM3.58535 12C3.79127 11.4174 4.34689 11 5 11H5.41465C5.20873 11.5826 4.65311 12 4 12H3.58535ZM12.4146 12H12C11.3469 12 10.7913 11.5826 10.5854 11H11C11.6531 11 12.2087 11.4174 12.4146 12ZM15 11H15.4146C15.2087 11.5826 14.6531 12 14 12H13.5854C13.7913 11.4174 14.3469 11 15 11ZM8 13.8C9.32509 13.8 11.14 14.4533 12.7406 15.2H3.25939C4.85999 14.4533 6.67491 13.8 8 13.8Z" fill="white"/>
<path d="M8.22731 0.630706C8.12681 0.456432 7.87319 0.456431 7.77269 0.630706L4.03488 7.11189C3.93515 7.28482 4.06117 7.5 4.2622 7.5H11.7378C11.9388 7.5 12.0649 7.28483 11.9651 7.11189L8.22731 0.630706ZM7.37744 2.7743C7.34539 2.49246 7.6333 2.25 8 2.25C8.3667 2.25 8.65461 2.49246 8.62256 2.7743L8.34109 5.25H7.65891L7.37744 2.7743ZM8.50389 6.25001C8.50389 6.52615 8.28004 6.75001 8.00389 6.75001C7.72775 6.75001 7.50389 6.52615 7.50389 6.25001C7.50389 5.97386 7.72775 5.75001 8.00389 5.75001C8.28004 5.75001 8.50389 5.97386 8.50389 6.25001Z" fill="white"/>
</svg>
