<svg width="16" height="16" viewBox="0 0 16 16" fill="none" xmlns="http://www.w3.org/2000/svg">
<path d="M4.5 7C4.77614 7 5 7.22386 5 7.5V9.56301C5.86261 9.78503 6.5 10.5681 6.5 11.5C6.5 12.6046 5.60457 13.5 4.5 13.5C3.39543 13.5 2.5 12.6046 2.5 11.5C2.5 10.5681 3.13739 9.78503 4 9.56301V7.5C4 7.22386 4.22386 7 4.5 7Z" fill="white"/>
<path d="M5.8 8.39855L6.33249 8.75498C7.2199 9.349 7.8 10.357 7.8 11.5C7.8 13.3225 6.32254 14.8 4.5 14.8C2.67746 14.8 1.2 13.3225 1.2 11.5C1.2 10.357 1.7801 9.349 2.66751 8.75498L3.2 8.39855V2.5C3.2 1.78203 3.78203 1.2 4.5 1.2C5.21797 1.2 5.8 1.78203 5.8 2.5V8.39855ZM7 2.5C7 1.11929 5.88071 0 4.5 0C3.11929 0 2 1.11929 2 2.5V7.75777C0.794014 8.56504 0 9.93979 0 11.5C0 13.9853 2.01472 16 4.5 16C6.98528 16 9 13.9853 9 11.5C9 9.93979 8.20599 8.56504 7 7.75777V2.5Z" fill="white"/>
<path d="M12.4654 2.46666C12.4654 2.20893 12.2564 2 11.9987 2C11.7409 2 11.532 2.20893 11.532 2.46666V3.19171L10.9041 2.82919C10.6809 2.70033 10.3955 2.77679 10.2666 3C10.1378 3.22321 10.2142 3.50862 10.4374 3.63748L11.0653 4L10.4374 4.36252C10.2142 4.49138 10.1378 4.77679 10.2666 5C10.3955 5.22321 10.6809 5.29967 10.9041 5.17081L11.532 4.80829V5.53334C11.532 5.79107 11.7409 6 11.9987 6C12.2564 6 12.4654 5.79107 12.4654 5.53334V4.8083L13.0933 5.17082C13.3165 5.29968 13.6019 5.22321 13.7307 5C13.8596 4.77679 13.7831 4.49138 13.5599 4.36252L12.932 4L13.5599 3.63748C13.7831 3.50862 13.8596 3.22321 13.7307 3C13.6019 2.77679 13.3165 2.70032 13.0933 2.82918L12.4654 3.1917V2.46666Z" fill="white"/>
<path d="M8.6755 1.87159L11.825 0.0475858C11.8781 0.0164261 11.9386 0 12.0003 0C12.0619 0 12.1224 0.0164261 12.1755 0.0475858L15.3245 1.87159C15.3778 1.90255 15.4221 1.94697 15.4529 2.0004C15.4837 2.05384 15.4999 2.11441 15.5 2.17609V5.82409C15.5 5.94959 15.433 6.06559 15.3245 6.12859L12.1755 7.95259C12.1224 7.984 12.0619 8.00057 12.0003 8.00057C11.9386 8.00057 11.8781 7.984 11.825 7.95259L8.676 6.12859C8.62251 6.09776 8.57807 6.05339 8.54718 5.99993C8.51628 5.94648 8.50001 5.88583 8.5 5.82409V2.17609C8.50006 2.11441 8.5163 2.05384 8.54709 2.0004C8.57789 1.94697 8.62217 1.90255 8.6755 1.87159ZM9.2015 5.62109L12 7.24209L14.7985 5.62109V2.37959L12 0.758086L9.2015 2.37909V5.62109Z" fill="white"/>
</svg>
