<svg width="16" height="16" viewBox="0 0 16 16" fill="none" xmlns="http://www.w3.org/2000/svg">
<path d="M4.46535 2.46666C4.46535 2.20893 4.25642 2 3.99868 2C3.74095 2 3.53202 2.20893 3.53202 2.46666V3.19171L2.90411 2.82919C2.68091 2.70033 2.3955 2.77679 2.26664 3C2.13777 3.22321 2.21424 3.50862 2.43745 3.63748L3.06535 4L2.43744 4.36252C2.21424 4.49138 2.13777 4.77679 2.26663 5C2.3955 5.22321 2.68091 5.29967 2.90411 5.17081L3.53202 4.80829V5.53334C3.53202 5.79107 3.74095 6 3.99868 6C4.25642 6 4.46535 5.79107 4.46535 5.53334V4.8083L5.09326 5.17082C5.31646 5.29968 5.60187 5.22321 5.73074 5C5.8596 4.77679 5.78313 4.49138 5.55992 4.36252L4.93202 4L5.55992 3.63748C5.78313 3.50862 5.8596 3.22321 5.73074 3C5.60187 2.77679 5.31646 2.70032 5.09326 2.82918L4.46535 3.1917V2.46666Z" fill="white"/>
<path d="M0.6755 1.87159L3.825 0.0475858C3.87815 0.0164261 3.93864 0 4.00025 0C4.06186 0 4.12235 0.0164261 4.1755 0.0475858L7.3245 1.87159C7.37783 1.90255 7.42211 1.94697 7.45291 2.0004C7.4837 2.05384 7.49994 2.11441 7.5 2.17609V5.82409C7.5 5.94959 7.433 6.06559 7.3245 6.12859L4.1755 7.95259C4.12244 7.984 4.06191 8.00057 4.00025 8.00057C3.93859 8.00057 3.87806 7.984 3.825 7.95259L0.676 6.12859C0.622505 6.09776 0.578074 6.05339 0.547177 5.99993C0.516281 5.94648 0.500009 5.88583 0.5 5.82409V2.17609C0.500059 2.11441 0.516298 2.05384 0.547094 2.0004C0.577891 1.94697 0.622166 1.90255 0.6755 1.87159V1.87159ZM1.2015 5.62109L4 7.24209L6.7985 5.62109V2.37959L4 0.758086L1.2015 2.37909V5.62109V5.62109Z" fill="white"/>
<path d="M9.9172 8.5763L10.4787 8.26763L10.9928 2.39152C11.0554 1.67629 11.6859 1.1472 12.4012 1.20977C13.1164 1.27235 13.6455 1.90289 13.5829 2.61813L13.0688 8.49423L13.5682 8.89572C14.4005 9.56482 14.8905 10.6195 14.7909 11.7582C14.6321 13.5738 13.0315 14.9169 11.2159 14.758C9.84954 14.6385 8.75083 13.7025 8.35842 12.4727L7.24028 12.9147C7.79629 14.5532 9.27692 15.793 11.1113 15.9535C13.5871 16.1701 15.7697 14.3386 15.9863 11.8628C16.1223 10.3085 15.4512 8.86978 14.3201 7.96048L14.7784 2.72272C14.8987 1.34726 13.8812 0.134678 12.5058 0.0143407C11.1303 -0.105996 9.91772 0.91148 9.79739 2.28694L9.33914 7.5247C8.59247 7.93515 7.97022 8.55284 7.55616 9.3075L8.58039 9.93675C8.88328 9.35993 9.35077 8.88766 9.9172 8.5763Z" fill="white"/>
<path d="M9.57234 11.993L11.0054 11.4266L9.6927 10.6201C9.9698 10.0303 10.524 9.60542 11.1742 9.49738L11.354 7.44222C11.3781 7.16713 11.6206 6.96364 11.8957 6.9877C12.1708 7.01177 12.3743 7.25429 12.3502 7.52938L12.1704 9.58454C13.0104 9.8809 13.5771 10.7165 13.4959 11.6449C13.3996 12.7453 12.4295 13.5592 11.3292 13.463C10.4699 13.3878 9.78526 12.7798 9.57234 11.993Z" fill="white"/>
<path d="M7.02118 11.0717C7.02099 11.0739 7.02079 11.0762 7.0206 11.0784C7.0204 11.0806 7.02021 11.0828 7.02002 11.085L7.02118 11.0717Z" fill="white"/>
<path d="M0.52231 9.69171L0.200012 10.0708L2.88691 12.8558L4.53086 11.0834L5.26243 12.4187L7.18917 10.9748L9.63958 11.5476L7.0519 9.92303L5.70398 10.6615L4.40136 9.31137L2.66898 11.1791L0.52231 9.69171Z" fill="white"/>
</svg>
