<svg width="16" height="16" viewBox="0 0 16 16" fill="none" xmlns="http://www.w3.org/2000/svg">
<path d="M4.87547 7.72464C4.44811 7.6437 4.0401 7.50445 3.53833 7.28405C3.35187 7.20215 3.12764 7.27306 3.03748 7.44244C2.94732 7.61181 3.02539 7.81551 3.21184 7.89741C3.85826 8.18134 4.38198 8.3474 4.95824 8.43096C5.09037 9.0292 5.37624 9.58203 5.79029 10.0237C6.37634 10.6488 7.1712 11 8 11C8.8288 11 9.62366 10.6488 10.2097 10.0237C10.7958 9.39857 11.125 8.55072 11.125 7.66667C11.125 6.15081 9.6892 3.54574 8.38409 1.56947C8.25425 1.37286 8.12571 1.18247 8 1C7.87429 1.18247 7.74575 1.37286 7.61591 1.56947C7.10658 2.34073 6.57734 3.20775 6.12131 4.06844C5.09184 4.07558 4.48031 3.9478 3.53833 3.53405C3.35187 3.45215 3.12764 3.52306 3.03748 3.69244C2.94732 3.86181 3.02539 4.06551 3.21184 4.14741C4.14691 4.55813 4.82524 4.7222 5.77724 4.7467C5.58495 5.14457 5.41408 5.53515 5.27415 5.90797C4.68773 5.84593 4.19278 5.69651 3.53833 5.40905C3.35187 5.32715 3.12764 5.39806 3.03748 5.56744C2.94732 5.73681 3.02539 5.94051 3.21184 6.02241C3.89407 6.32207 4.43962 6.49043 5.05452 6.56909C4.93985 6.97315 4.875 7.34451 4.875 7.66667C4.875 7.68601 4.87516 7.70533 4.87547 7.72464ZM5.50324 7.80253C5.50109 7.75739 5.5 7.71209 5.5 7.66667C5.5 7.39868 5.56314 7.04674 5.69513 6.61921C5.85275 6.62471 6.01769 6.62617 6.19248 6.6241C6.97284 6.61485 7.43808 6.54441 8.17957 6.32326C8.37634 6.26456 8.48348 6.07208 8.41887 5.89334C8.35426 5.71459 8.14237 5.61726 7.9456 5.67595C7.27651 5.87552 6.88687 5.93451 6.18269 5.94286C6.09805 5.94386 6.01624 5.944 5.93687 5.9432C6.08478 5.57379 6.26433 5.1826 6.46708 4.7801C6.47346 4.76741 6.47987 4.75473 6.4863 4.74204C7.10044 4.71864 7.53593 4.64023 8.17957 4.44825C8.37634 4.38956 8.48348 4.19708 8.41887 4.01834C8.35426 3.83959 8.14237 3.74226 7.9456 3.80095C7.5227 3.92709 7.21143 3.99707 6.86182 4.0336C7.219 3.38696 7.61233 2.74252 8 2.1469C8.53718 2.97224 9.08525 3.89133 9.53292 4.7801C9.82766 5.36524 10.0734 5.92646 10.2441 6.4316C10.4176 6.94459 10.5 7.36044 10.5 7.66667C10.5 8.37391 10.2366 9.05219 9.76777 9.55229C9.29893 10.0524 8.66304 10.3333 8 10.3333C7.33696 10.3333 6.70107 10.0524 6.23223 9.55229C5.9508 9.25209 5.7434 8.8877 5.62256 8.49137C5.802 8.49918 5.99068 8.50149 6.19248 8.4991C6.97284 8.48985 7.43808 8.41941 8.17957 8.19826C8.37634 8.13956 8.48348 7.94708 8.41887 7.76834C8.35426 7.58959 8.14237 7.49226 7.9456 7.55095C7.27651 7.75052 6.88687 7.80951 6.18269 7.81786C5.93532 7.82079 5.71213 7.81634 5.50324 7.80253Z" fill="white"/>
<path d="M9.90724 4.12246C10.9542 4.10685 11.5834 4.17884 12.6418 4.42779C12.8004 4.46508 12.9575 4.35975 12.9929 4.19252C13.0283 4.02529 12.9284 3.8595 12.7698 3.82221C11.6203 3.55182 10.9364 3.47969 9.7588 3.5046C9.69606 3.50593 9.63459 3.50828 9.57429 3.51156C9.68866 3.71477 9.80005 3.91885 9.90724 4.12246Z" fill="white"/>
<path d="M10.7634 6.00968C11.3726 6.04134 11.9025 6.1289 12.6418 6.30279C12.8004 6.34008 12.9575 6.23475 12.9929 6.06752C13.0283 5.90029 12.9284 5.7345 12.7698 5.69721C11.8876 5.4897 11.2797 5.39896 10.5123 5.37924C10.6047 5.59395 10.689 5.8047 10.7634 6.00968Z" fill="white"/>
<path d="M12.6418 8.17779C12.0482 8.03818 11.5896 7.95422 11.1167 7.91015C11.1222 7.8294 11.125 7.74819 11.125 7.66667C11.125 7.54632 11.116 7.4191 11.0986 7.28588C11.6223 7.33046 12.1221 7.41986 12.7698 7.57221C12.9284 7.6095 13.0283 7.77529 12.9929 7.94252C12.9575 8.10975 12.8004 8.21508 12.6418 8.17779Z" fill="white"/>
<path d="M10.8329 12.9999C12.6419 12.9616 13.661 13.0691 15.4269 13.4845C15.6806 13.5441 15.9321 13.3756 15.9886 13.108C16.0452 12.8405 15.8854 12.5752 15.6317 12.5155C13.7924 12.0829 12.6982 11.9675 10.8141 12.0074C9.64039 12.0322 8.74221 12.2811 7.89227 12.5166L7.88043 12.5199C7.028 12.7561 6.22321 12.9778 5.16707 13.0001C3.35813 13.0384 2.33903 12.9309 0.5731 12.5155C0.319434 12.4559 0.0679444 12.6244 0.0113812 12.892C-0.045182 13.1595 0.114601 13.4248 0.368267 13.4845C2.2076 13.9171 3.30181 14.0325 5.18594 13.9926C6.3596 13.9678 7.25779 13.7189 8.10773 13.4834L8.11957 13.4801C8.972 13.2439 9.77679 13.0222 10.8329 12.9999Z" fill="white"/>
<path d="M10.8329 14.9999C12.6419 14.9616 13.661 15.0691 15.4269 15.4845C15.6806 15.5441 15.9321 15.3756 15.9886 15.108C16.0452 14.8405 15.8854 14.5752 15.6317 14.5155C13.7924 14.0829 12.6982 13.9675 10.8141 14.0074C9.64039 14.0322 8.74221 14.2811 7.89227 14.5166L7.88043 14.5199C7.028 14.7561 6.22321 14.9778 5.16707 15.0001C3.35813 15.0384 2.33903 14.9309 0.5731 14.5155C0.319434 14.4559 0.0679444 14.6244 0.0113812 14.892C-0.045182 15.1595 0.114601 15.4248 0.368267 15.4845C2.2076 15.9171 3.30181 16.0325 5.18594 15.9926C6.3596 15.9678 7.25779 15.7189 8.10773 15.4834L8.11957 15.4801C8.972 15.2439 9.77679 15.0222 10.8329 14.9999Z" fill="white"/>
</svg>
