<svg width="16" height="16" viewBox="0 0 16 16" fill="none" xmlns="http://www.w3.org/2000/svg">
<path d="M2.5 0.5C2.77614 0.5 3 0.723858 3 1V2.5H7V2H6C5.72386 2 5.5 1.77614 5.5 1.5C5.5 1.22386 5.72386 1 6 1H9C9.27614 1 9.5 1.22386 9.5 1.5C9.5 1.77614 9.27614 2 9 2H8V2.5H12V1C12 0.723858 12.2239 0.5 12.5 0.5C12.7761 0.5 13 0.723858 13 1V2.5H13.25C13.9404 2.5 14.5 3.05964 14.5 3.75C14.5 3.88807 14.6119 4 14.75 4H15.5C15.7761 4 16 4.22386 16 4.5C16 4.77614 15.7761 5 15.5 5H14.75C14.0596 5 13.5 4.44036 13.5 3.75C13.5 3.61193 13.3881 3.5 13.25 3.5H13V11H15V16H0V11H2V3.5H0.5C0.223858 3.5 0 3.27614 0 3C0 2.72386 0.223858 2.5 0.5 2.5H2V1C2 0.723858 2.22386 0.5 2.5 0.5ZM3 11H12V3.5H8V5H11L9.44444 10H5.55556L4 5H7V3.5H3V11ZM7.5 9C8.05556 9 8.5 8.55556 8.5 8C8.5 7.36111 7.5 6 7.5 6C7.5 6 6.5 7.33333 6.5 8C6.5 8.55556 6.94444 9 7.5 9Z" fill="white"/>
</svg>
