<svg width="16" height="16" viewBox="0 0 16 16" fill="none" xmlns="http://www.w3.org/2000/svg">
<path d="M6.5 0H11.5V12C11.8543 12.0005 12.1831 12.0086 12.5 12.0257V3.73241L14.5 2.5V0.5H15.5V12.4848C15.5435 12.4949 15.5874 12.5051 15.6317 12.5155C15.8854 12.5752 16.0452 12.8405 15.9886 13.108C15.9321 13.3756 15.6806 13.5441 15.4269 13.4845C13.661 13.0691 12.6419 12.9616 10.8329 12.9999C9.77679 13.0222 8.972 13.2439 8.11957 13.4801L8.10773 13.4834C7.25779 13.7189 6.3596 13.9678 5.18594 13.9926C3.30181 14.0325 2.2076 13.9171 0.368267 13.4845C0.114601 13.4248 -0.045182 13.1595 0.0113812 12.892C0.0679444 12.6244 0.319434 12.4559 0.5731 12.5155C1.30778 12.6883 1.91319 12.8078 2.5 12.8857V9.625H0.196647C0.0458796 9.625 -0.04864 9.46362 0.0261615 9.33392L2.82951 4.47303C2.90489 4.34232 3.09511 4.34232 3.17049 4.47303L5.97384 9.33392C6.04864 9.46362 5.95412 9.625 5.80335 9.625H3.5V12.9802C4.00318 13.0091 4.53725 13.0134 5.16707 13.0001C5.65524 12.9898 6.08971 12.9369 6.5 12.8596V0ZM7.5 5V12H8.5V5H7.5ZM10.5 1H7.5V2H10.5V1ZM7.5 3V4H10.5V3H7.5ZM10.5 5H9.5V12H10.5V5ZM14.5 5H13.5V6H14.5V5ZM13.5 7V8H14.5V7H13.5ZM14.5 9H13.5V11H14.5V9ZM2.53308 6.08073L2.74419 7.9375H3.25581L3.46692 6.08073C3.49095 5.86935 3.27503 5.6875 3 5.6875C2.72497 5.6875 2.50905 5.86935 2.53308 6.08073ZM3.37792 8.6875C3.37792 8.4804 3.21003 8.3125 3.00292 8.3125C2.79581 8.3125 2.62792 8.4804 2.62792 8.6875C2.62792 8.89461 2.79581 9.0625 3.00292 9.0625C3.21003 9.0625 3.37792 8.89461 3.37792 8.6875Z" fill="white"/>
<path d="M15.4269 15.4845C13.661 15.0691 12.6419 14.9616 10.8329 14.9999C9.77679 15.0222 8.972 15.2439 8.11957 15.4801L8.10773 15.4834C7.25779 15.7189 6.3596 15.9678 5.18594 15.9926C3.30181 16.0325 2.2076 15.9171 0.368267 15.4845C0.114601 15.4248 -0.045182 15.1595 0.0113812 14.892C0.0679444 14.6244 0.319434 14.4559 0.5731 14.5155C2.33903 14.9309 3.35813 15.0384 5.16707 15.0001C6.22321 14.9778 7.028 14.7561 7.88043 14.5199L7.89227 14.5166C8.74221 14.2811 9.64039 14.0322 10.8141 14.0074C12.6982 13.9675 13.7924 14.0829 15.6317 14.5155C15.8854 14.5752 16.0452 14.8405 15.9886 15.108C15.9321 15.3756 15.6806 15.5441 15.4269 15.4845Z" fill="white"/>
</svg>
