<svg width="16" height="16" viewBox="0 0 16 16" fill="none" xmlns="http://www.w3.org/2000/svg">
<path d="M0 16L8 0V3.2L9.26316 5.33333L8 6.4L7.1579 9.6L8 10.6667L7.1579 13.3333L9.26316 14.9333L10.1053 16H0Z" fill="white"/>
<path d="M9.68417 2.1333L10.1052 4.26663H11.3684L9.68417 2.1333Z" fill="white"/>
<path d="M9.26315 8.00002L10.9474 6.93335L11.3684 10.1334L9.26315 9.60002V8.00002Z" fill="white"/>
<path d="M12.6316 10.1333L11.7895 11.7333L13.4737 12.8L12.6316 10.1333Z" fill="white"/>
<path d="M9.26315 13.8667L10.1053 12.2667L13.0526 14.4001L10.9474 15.4667L9.26315 13.8667Z" fill="white"/>
<path d="M14.3158 14.4L15.1579 13.3334L15.5789 15.4667L14.3158 14.4Z" fill="white"/>
</svg>
