<svg width="16" height="16" viewBox="0 0 16 16" fill="none" xmlns="http://www.w3.org/2000/svg">
<path d="M9.08535 1.50356L9.08535 1.5C9.08535 0.671572 8.41378 0 7.58535 0C7.10248 0 6.67289 0.228167 6.39853 0.58257C6.27643 0.529453 6.14165 0.5 6 0.5C5.44772 0.5 5 0.947715 5 1.5C5 1.5292 5.00125 1.5581 5.0037 1.58667C4.84627 1.53055 4.6767 1.5 4.5 1.5C3.67157 1.5 3 2.17157 3 3L3.00003 3.00887C2.51099 3.07424 2.13379 3.49307 2.13379 4C2.13379 4.23297 2.21346 4.44734 2.34704 4.61734C2.13837 4.75052 2 4.9841 2 5.25C2 5.57721 2.20954 5.85547 2.50174 5.95794C2.50059 5.97181 2.5 5.98583 2.5 6C2.5 6.27614 2.72386 6.5 3 6.5C3.27614 6.5 3.5 6.27614 3.5 6C3.5 5.87226 3.45209 5.7557 3.37327 5.66732C3.45331 5.54801 3.5 5.40446 3.5 5.25C3.5 5.14436 3.47816 5.04382 3.43874 4.95265C3.70361 4.86793 3.92046 4.67581 4.03805 4.42752C4.18357 4.47458 4.33882 4.5 4.5 4.5C5.06491 4.5 5.55688 4.18773 5.81271 3.72638C5.99189 3.89599 6.2338 4 6.5 4C6.70583 4 6.89713 3.93781 7.05615 3.83121C7.19283 4.22071 7.5638 4.5 8 4.5C8.55229 4.5 9 4.05228 9 3.5C9.55228 3.5 10 3.05225 10 2.49997C10 1.97643 9.59768 1.54686 9.08535 1.50356Z" fill="white"/>
<path d="M2 7H4V11.9098L16 9.90977V16H0V12.5764L2 12.2431V7ZM15 11.0902L1 13.4236V15H15V11.0902ZM10 14H9V13H10V14ZM12 14H11V13H12V14ZM14 14H13V13H14V14Z" fill="white"/>
<path d="M12.1705 4.47303C12.0951 4.34232 11.9049 4.34232 11.8295 4.47303L9.02616 9.33392C8.95136 9.46362 9.04588 9.625 9.19665 9.625H14.8034C14.9541 9.625 15.0486 9.46362 14.9738 9.33392L12.1705 4.47303ZM11.5331 6.08073C11.509 5.86935 11.725 5.6875 12 5.6875C12.275 5.6875 12.491 5.86935 12.4669 6.08073L12.2558 7.9375H11.7442L11.5331 6.08073ZM12.3779 8.6875C12.3779 8.89461 12.21 9.0625 12.0029 9.0625C11.7958 9.0625 11.6279 8.89461 11.6279 8.6875C11.6279 8.4804 11.7958 8.3125 12.0029 8.3125C12.21 8.3125 12.3779 8.4804 12.3779 8.6875Z" fill="white"/>
</svg>
