<svg width="16" height="16" viewBox="0 0 16 16" fill="none" xmlns="http://www.w3.org/2000/svg">
<path d="M9.08535 1.50356L9.08535 1.5C9.08535 0.671572 8.41378 0 7.58535 0C7.10248 0 6.67289 0.228167 6.39853 0.58257C6.27643 0.529453 6.14165 0.5 6 0.5C5.44772 0.5 5 0.947715 5 1.5C5 1.5292 5.00125 1.5581 5.0037 1.58667C4.84627 1.53055 4.6767 1.5 4.5 1.5C3.67157 1.5 3 2.17157 3 3L3.00003 3.00887C2.51099 3.07424 2.13379 3.49307 2.13379 4C2.13379 4.23297 2.21346 4.44734 2.34704 4.61734C2.13837 4.75052 2 4.9841 2 5.25C2 5.57721 2.20954 5.85547 2.50174 5.95794C2.50059 5.97181 2.5 5.98583 2.5 6C2.5 6.27614 2.72386 6.5 3 6.5C3.27614 6.5 3.5 6.27614 3.5 6C3.5 5.87226 3.45209 5.7557 3.37327 5.66732C3.45331 5.54801 3.5 5.40446 3.5 5.25C3.5 5.14436 3.47816 5.04382 3.43874 4.95265C3.70361 4.86793 3.92046 4.67581 4.03805 4.42752C4.18357 4.47458 4.33882 4.5 4.5 4.5C5.06491 4.5 5.55688 4.18773 5.81271 3.72638C5.99189 3.89599 6.2338 4 6.5 4C6.70583 4 6.89713 3.93781 7.05615 3.83121C7.19283 4.22071 7.5638 4.5 8 4.5C8.55229 4.5 9 4.05228 9 3.5C9.55228 3.5 10 3.05225 10 2.49997C10 1.97643 9.59768 1.54686 9.08535 1.50356Z" fill="white"/>
<path d="M11 4.5C11 4.77614 10.7761 5 10.5 5C10.2239 5 10 4.77614 10 4.5C10 4.22386 10.2239 4 10.5 4C10.7761 4 11 4.22386 11 4.5Z" fill="white"/>
<path d="M11 1.5C11.2761 1.5 11.5 1.27614 11.5 1C11.5 0.723858 11.2761 0.5 11 0.5C10.7239 0.5 10.5 0.723858 10.5 1C10.5 1.27614 10.7239 1.5 11 1.5Z" fill="white"/>
<path d="M3 1.5C3 1.77614 2.77614 2 2.5 2C2.22386 2 2 1.77614 2 1.5C2 1.22386 2.22386 1 2.5 1C2.77614 1 3 1.22386 3 1.5Z" fill="white"/>
<path d="M6.49999 6.00003C6.77613 6.00003 6.99999 5.77617 6.99999 5.50003C6.99999 5.22389 6.77613 5.00003 6.49999 5.00003C6.22385 5.00003 5.99999 5.22389 5.99999 5.50003C5.99999 5.77617 6.22385 6.00003 6.49999 6.00003Z" fill="white"/>
<path d="M2 7H4V11.9098L16 9.90977V16H0V12.5764L2 12.2431V7ZM15 11.0902L1 13.4236V15H15V11.0902ZM10 14H9V13H10V14ZM12 14H11V13H12V14ZM14 14H13V13H14V14Z" fill="white"/>
</svg>
