<svg width="16" height="16" viewBox="0 0 16 16" fill="none" xmlns="http://www.w3.org/2000/svg">
<path d="M8.37507 0.375C8.37507 0.167893 8.20718 0 8.00007 0C7.79296 0 7.62507 0.167893 7.62507 0.375V1.34467L7.14024 0.859835C6.99379 0.713388 6.75635 0.713388 6.60991 0.859835C6.46346 1.00628 6.46346 1.24372 6.60991 1.39017L7.62507 2.40533V3.75C7.62507 3.7604 7.62549 3.7707 7.62632 3.78089C7.08138 3.87198 6.60278 4.15893 6.26534 4.56692C6.25687 4.56105 6.24808 4.55548 6.239 4.55024L5.07448 3.8779L4.7029 2.49116C4.6493 2.29111 4.44368 2.17239 4.24363 2.226C4.04358 2.2796 3.92486 2.48523 3.97846 2.68528L4.15592 3.34757L3.31616 2.86274C3.1368 2.75918 2.90746 2.82064 2.8039 3C2.70035 3.17936 2.7618 3.4087 2.94116 3.51226L3.78092 3.99709L3.11863 4.17455C2.91858 4.22816 2.79986 4.43378 2.85346 4.63383C2.90706 4.83388 3.11269 4.9526 3.31274 4.899L4.69948 4.52742L5.864 5.19976C5.87292 5.20491 5.88196 5.20965 5.89111 5.21399C5.79987 5.45867 5.75 5.72351 5.75 6C5.75 6.27649 5.79987 6.54133 5.89111 6.78602C5.88197 6.79035 5.87294 6.79509 5.86402 6.80024L4.6995 7.47257L3.31276 7.101C3.11271 7.04739 2.90709 7.16611 2.85348 7.36616C2.79988 7.56621 2.9186 7.77184 3.11865 7.82544L3.78095 8.0029L2.94119 8.48774C2.76183 8.59129 2.70037 8.82064 2.80393 9C2.90748 9.17936 3.13683 9.24081 3.31619 9.13726L4.15595 8.65242L3.97848 9.31472C3.92488 9.51477 4.0436 9.72039 4.24365 9.774C4.4437 9.8276 4.64932 9.70888 4.70293 9.50883L5.0745 8.12209L6.23902 7.44976C6.2481 7.44451 6.25688 7.43895 6.26534 7.43309C6.60278 7.84107 7.08139 8.12802 7.62632 8.21911C7.62549 8.2293 7.62507 8.2396 7.62507 8.25V9.59467L6.60991 10.6098C6.46346 10.7563 6.46346 10.9937 6.60991 11.1402C6.75635 11.2866 6.99379 11.2866 7.14024 11.1402L7.62507 10.6553V11.625C7.62507 11.8321 7.79296 12 8.00007 12C8.20718 12 8.37507 11.8321 8.37507 11.625V10.6553L8.85991 11.1402C9.00635 11.2866 9.24379 11.2866 9.39024 11.1402C9.53668 10.9937 9.53668 10.7563 9.39024 10.6098L8.37507 9.59467V8.25C8.37507 8.23959 8.37465 8.22928 8.37381 8.21909C8.91872 8.12797 9.39729 7.84101 9.73471 7.43303C9.7432 7.43891 9.75201 7.4445 9.76111 7.44976L10.9256 8.12209L11.2972 9.50883C11.3508 9.70888 11.5564 9.8276 11.7565 9.774C11.9565 9.72039 12.0753 9.51477 12.0217 9.31472L11.8442 8.65242L12.6839 9.13726C12.8633 9.24081 13.0927 9.17936 13.1962 9C13.2998 8.82064 13.2383 8.59129 13.0589 8.48774L12.2192 8.0029L12.8815 7.82544C13.0815 7.77184 13.2003 7.56621 13.1467 7.36616C13.0931 7.16611 12.8874 7.04739 12.6874 7.101L11.3006 7.47257L10.1361 6.80024C10.1272 6.79507 10.1181 6.79031 10.1089 6.78596C10.2001 6.54129 10.25 6.27647 10.25 6C10.25 5.72353 10.2001 5.45871 10.1089 5.21404C10.1181 5.20969 10.1272 5.20493 10.1361 5.19976L11.3007 4.52742L12.6874 4.899C12.8874 4.9526 13.0931 4.83388 13.1467 4.63383C13.2003 4.43378 13.0816 4.22816 12.8815 4.17455L12.2192 3.99709L13.059 3.51226C13.2383 3.4087 13.2998 3.17936 13.1962 3C13.0927 2.82064 12.8633 2.75918 12.684 2.86274L11.8442 3.34757L12.0217 2.68528C12.0753 2.48523 11.9566 2.2796 11.7565 2.226C11.5565 2.17239 11.3508 2.29111 11.2972 2.49116L10.9257 3.8779L9.76114 4.55024C9.75202 4.5555 9.74321 4.56109 9.73471 4.56698C9.3973 4.15899 8.91872 3.87203 8.37381 3.78091C8.37465 3.77072 8.37507 3.76041 8.37507 3.75V2.40533L9.39024 1.39017C9.53668 1.24372 9.53668 1.00628 9.39024 0.859835C9.24379 0.713388 9.00635 0.713388 8.85991 0.859835L8.37507 1.34467V0.375Z" fill="white"/>
<path d="M2.5 13C2.22386 13 2 13.2239 2 13.5C2 13.7761 2.22386 14 2.5 14H13.5C13.7761 14 14 13.7761 14 13.5C14 13.2239 13.7761 13 13.5 13H2.5Z" fill="white"/>
<path d="M0.5 15C0.223858 15 0 15.2239 0 15.5C0 15.7761 0.223858 16 0.5 16H15.5C15.7761 16 16 15.7761 16 15.5C16 15.2239 15.7761 15 15.5 15H0.5Z" fill="white"/>
</svg>
