<svg width="16" height="16" viewBox="0 0 16 16" fill="none" xmlns="http://www.w3.org/2000/svg">
<path d="M9.03782 4.13697C8.53992 4.00356 8.02814 4.29904 7.89473 4.79693L7.51942 6.1976L6.49405 5.17224C6.12956 4.80775 5.53861 4.80775 5.17411 5.17225C4.80962 5.53674 4.80962 6.1277 5.17411 6.49219L6.19948 7.51754L4.7988 7.89285C4.3009 8.02626 4.00543 8.53804 4.13884 9.03595C4.27225 9.53386 4.78403 9.82934 5.28193 9.69593L6.68261 9.32062L6.3073 10.7213C6.17389 11.2192 6.46936 11.731 6.96727 11.8644C7.46517 11.9978 7.97695 11.7023 8.11036 11.2044L8.48567 9.80373L9.51104 10.8291C9.87553 11.1936 10.4665 11.1936 10.831 10.8291C11.1955 10.4646 11.1955 9.87365 10.831 9.50916L9.80561 8.48381L11.2063 8.1085C11.7042 7.97509 11.9997 7.4633 11.8662 6.9654C11.7328 6.46749 11.221 6.17203 10.7231 6.30544L9.32248 6.68075L9.69779 5.28006C9.8312 4.78217 9.53572 4.27038 9.03782 4.13697Z" fill="white"/>
<path d="M12.7459 1.52086C12.8658 1.55298 12.968 1.6314 13.03 1.73888L15.9373 6.77442C15.9994 6.8819 16.0162 7.00962 15.9841 7.12949L14.4791 12.7459C14.447 12.8658 14.3686 12.968 14.2611 13.03L9.22558 15.9373C9.1181 15.9994 8.99038 16.0162 8.87051 15.9841L3.25409 14.4791C3.13422 14.447 3.03201 14.3686 2.96996 14.2611L0.0626905 9.22558C0.000640638 9.1181 -0.0161743 8.99038 0.0159451 8.87051L1.52086 3.25409C1.55298 3.13422 1.6314 3.03201 1.73888 2.96996L6.77442 0.0626904C6.8819 0.000640552 7.00962 -0.0161743 7.12949 0.0159451L12.7459 1.52086ZM14.4309 6.97275L12.1051 2.94431C12.043 2.83684 11.9408 2.75841 11.821 2.72629L7.32781 1.52236C7.20794 1.49024 7.08022 1.50706 6.97275 1.56911L2.94431 3.89493C2.83684 3.95698 2.75841 4.05918 2.72629 4.17905L1.52236 8.67219C1.49024 8.79206 1.50706 8.91978 1.56911 9.02725L3.89493 13.0557C3.95698 13.1632 4.05918 13.2416 4.17905 13.2737L8.67219 14.4776C8.79206 14.5098 8.91978 14.4929 9.02725 14.4309L13.0557 12.1051C13.1632 12.043 13.2416 11.9408 13.2737 11.821L14.4776 7.32781C14.5098 7.20794 14.4929 7.08022 14.4309 6.97275Z" fill="white"/>
</svg>
