<svg width="16" height="16" viewBox="0 0 16 16" fill="none" xmlns="http://www.w3.org/2000/svg">
<path d="M8 9.94842e-07C7.7345 5.92441e-05 7.46916 0.0134093 7.205 0.040001C6.9935 0.0629162 6.78299 0.0942745 6.574 0.134001C6.531 0.142001 6.487 0.145001 6.444 0.154001C4.62733 0.513321 2.99165 1.49191 1.81606 2.92279C0.640484 4.35366 -0.00213623 6.14814 -0.00213623 8C-0.00213623 9.85186 0.640484 11.6463 1.81606 13.0772C2.99165 14.5081 4.62733 15.4867 6.444 15.846C6.487 15.855 6.531 15.858 6.574 15.866C6.782 15.903 6.991 15.939 7.205 15.96C8.284 16.0683 9.37376 15.9561 10.4081 15.6302C11.4424 15.3044 12.3996 14.7716 13.2216 14.0643C14.0437 13.3571 14.7133 12.49 15.1899 11.516C15.6665 10.5419 15.9401 9.48108 15.9941 8.398C16.048 7.31492 15.8812 6.23218 15.5038 5.21556C15.1263 4.19894 14.5462 3.26967 13.7985 2.48421C13.0508 1.69875 12.1512 1.0735 11.1544 0.646449C10.1576 0.219397 9.08442 -0.000539789 8 9.94842e-07ZM8 15.5C7.4387 15.5003 6.87915 15.4372 6.332 15.312C7.60182 14.5602 8.65393 13.4906 9.38476 12.2085C10.1156 10.9265 10.4999 9.47621 10.4999 8.0005C10.4999 6.52479 10.1156 5.07452 9.38476 3.79249C8.65393 2.51045 7.60182 1.44085 6.332 0.689001C7.36155 0.453392 8.42925 0.437888 9.46521 0.643504C10.5012 0.84912 11.482 1.27122 12.3435 1.88217C13.2051 2.49312 13.9278 3.27914 14.4645 4.18877C15.0013 5.0984 15.3398 6.11114 15.458 7.16067C15.5762 8.2102 15.4714 9.27286 15.1504 10.2791C14.8295 11.2853 14.2996 12.2124 13.5956 12.9997C12.8915 13.7869 12.0291 14.4166 11.0648 14.8475C10.1006 15.2784 9.05616 15.5007 8 15.5Z" fill="white"/>
</svg>
