<svg width="16" height="16" viewBox="0 0 16 16" fill="none" xmlns="http://www.w3.org/2000/svg">
<path d="M7.99999 0C7.64363 0.00267488 7.28785 0.0290665 6.93499 0.079C5.04621 0.331214 3.30969 1.25 2.03861 2.66967C0.767521 4.08934 0.045519 5.91646 0.00280328 7.82153C-0.0399124 9.72661 0.59947 11.5843 1.80565 13.0595C3.01182 14.5347 4.70541 15.5304 6.58099 15.867H6.58199C7.04973 15.9537 7.5243 15.9982 7.99999 16C10.1217 16 12.1566 15.1571 13.6568 13.6569C15.1571 12.1566 16 10.1217 16 8C16 5.87827 15.1571 3.84344 13.6568 2.34315C12.1566 0.842855 10.1217 0 7.99999 0V0ZM7.99999 15.5C7.75779 15.4995 7.51578 15.4862 7.27499 15.46C8.1286 12.8946 8.54275 10.2034 8.49999 7.5C8.5198 5.14074 8.2146 2.78999 7.59299 0.514C7.73399 0.504 7.86799 0.5 7.99999 0.5C9.98912 0.5 11.8968 1.29018 13.3033 2.6967C14.7098 4.10322 15.5 6.01088 15.5 8C15.5 9.98912 14.7098 11.8968 13.3033 13.3033C11.8968 14.7098 9.98912 15.5 7.99999 15.5Z" fill="white"/>
</svg>
