<svg width="16" height="16" viewBox="0 0 16 16" fill="none" xmlns="http://www.w3.org/2000/svg">
<path d="M8 0C6.41775 0 4.87103 0.469192 3.55544 1.34824C2.23985 2.22729 1.21447 3.47672 0.608967 4.93853C0.00346625 6.40034 -0.15496 8.00887 0.153721 9.56072C0.462403 11.1126 1.22433 12.538 2.34315 13.6569C3.46197 14.7757 4.88743 15.5376 6.43928 15.8463C7.99113 16.155 9.59966 15.9965 11.0615 15.391C12.5233 14.7855 13.7727 13.7602 14.6518 12.4446C15.5308 11.129 16 9.58225 16 8C16 5.87827 15.1571 3.84344 13.6569 2.34315C12.1566 0.842855 10.1217 0 8 0V0ZM8 15C7.6827 14.9984 7.36591 14.9743 7.052 14.928C6.9638 14.9153 6.88077 14.8787 6.812 14.822C5.87255 13.9581 5.13135 12.901 4.63937 11.7233C4.14739 10.5457 3.9163 9.27546 3.962 8C3.91779 6.7357 4.1446 5.47658 4.6272 4.30717C5.10979 3.13776 5.83701 2.08515 6.76 1.22C6.86234 1.13465 6.98686 1.0802 7.119 1.063C7.41094 1.02239 7.70526 1.00134 8 1C9.85652 1 11.637 1.7375 12.9498 3.05025C14.2625 4.36301 15 6.14348 15 8C15 9.85652 14.2625 11.637 12.9498 12.9497C11.637 14.2625 9.85652 15 8 15Z" fill="white"/>
</svg>
