<svg width="16" height="16" viewBox="0 0 16 16" fill="none" xmlns="http://www.w3.org/2000/svg">
<path d="M8 1C9.38447 1 10.7379 1.41054 11.889 2.17971C13.0401 2.94888 13.9373 4.04213 14.4672 5.32122C14.997 6.6003 15.1356 8.00776 14.8655 9.36563C14.5954 10.7235 13.9287 11.9708 12.9498 12.9497C11.9708 13.9287 10.7235 14.5954 9.36564 14.8655C8.00777 15.1356 6.6003 14.997 5.32122 14.4672C4.04214 13.9373 2.94889 13.0401 2.17972 11.889C1.41055 10.7378 1 9.38447 1 8C1.00212 6.14413 1.7403 4.36489 3.05259 3.05259C4.36489 1.7403 6.14414 1.00212 8 1ZM8 0C6.41775 0 4.87103 0.469192 3.55544 1.34824C2.23985 2.22729 1.21447 3.47672 0.608967 4.93853C0.00346625 6.40034 -0.15496 8.00887 0.153721 9.56072C0.462403 11.1126 1.22433 12.538 2.34315 13.6569C3.46197 14.7757 4.88743 15.5376 6.43928 15.8463C7.99113 16.155 9.59966 15.9965 11.0615 15.391C12.5233 14.7855 13.7727 13.7602 14.6518 12.4446C15.5308 11.129 16 9.58225 16 8C16 5.87827 15.1571 3.84344 13.6569 2.34315C12.1566 0.842855 10.1217 0 8 0V0Z" fill="white"/>
</svg>
