<svg width="16" height="16" viewBox="0 0 16 16" fill="none" xmlns="http://www.w3.org/2000/svg">
<path d="M0 8C0 9.58225 0.469192 11.129 1.34824 12.4446C2.22729 13.7602 3.47672 14.7855 4.93853 15.391C6.40034 15.9965 8.00887 16.155 9.56072 15.8463C11.1126 15.5376 12.538 14.7757 13.6569 13.6569C14.7757 12.538 15.5376 11.1126 15.8463 9.56072C16.155 8.00887 15.9965 6.40034 15.391 4.93853C14.7855 3.47672 13.7602 2.22729 12.4446 1.34824C11.129 0.469192 9.58225 0 8 0C5.87827 0 3.84344 0.842855 2.34315 2.34315C0.842855 3.84344 0 5.87827 0 8H0ZM1 8C1.00212 6.14413 1.7403 4.36489 3.05259 3.05259C4.36489 1.7403 6.14413 1.00212 8 1C8.29474 1.00134 8.58906 1.02239 8.881 1.063C9.01349 1.08002 9.13838 1.13448 9.241 1.22C10.1635 2.08542 10.8901 3.13815 11.3722 4.30755C11.8543 5.47694 12.0806 6.73593 12.036 8C12.0818 9.27539 11.8509 10.5456 11.3591 11.7232C10.8673 12.9009 10.1263 13.958 9.187 14.822C9.11823 14.8787 9.0352 14.9153 8.947 14.928C8.63342 14.9743 8.31697 14.9983 8 15C6.14413 14.9979 4.36489 14.2597 3.05259 12.9474C1.7403 11.6351 1.00212 9.85587 1 8Z" fill="white"/>
</svg>
