<svg width="16" height="16" viewBox="0 0 16 16" fill="none" xmlns="http://www.w3.org/2000/svg">
<path d="M8.00006 0C7.6437 0.00267488 7.28791 0.0290665 6.93506 0.079C5.04627 0.331214 3.30976 1.25 2.03867 2.66967C0.767582 4.08934 0.04558 5.91646 0.00286432 7.82153C-0.0398514 9.72661 0.599531 11.5843 1.80571 13.0595C3.01188 14.5347 4.70547 15.5304 6.58106 15.867H6.58206C7.04979 15.9537 7.52436 15.9982 8.00006 16C10.1218 16 12.1566 15.1571 13.6569 13.6569C15.1572 12.1566 16.0001 10.1217 16.0001 8C16.0001 5.87827 15.1572 3.84344 13.6569 2.34315C12.1566 0.842855 10.1218 0 8.00006 0V0ZM1.00006 8C1.00268 6.28243 1.63598 4.62564 2.77968 3.34423C3.92337 2.06283 5.49783 1.24605 7.20406 1.049C7.74621 3.15606 8.01376 5.32435 8.00006 7.5C8.03203 10.0105 7.67204 12.5105 6.93306 14.91C5.28281 14.6544 3.77815 13.8178 2.69031 12.5508C1.60247 11.2838 1.00303 9.66991 1.00006 8Z" fill="white"/>
</svg>
