<svg width="16" height="16" viewBox="0 0 16 16" fill="none" xmlns="http://www.w3.org/2000/svg">
<path d="M9.55496 0.154C9.51296 0.145 9.46996 0.142 9.42596 0.134C9.21696 0.094271 9.00646 0.0629127 8.79496 0.0399996C7.71596 -0.0683058 6.6262 0.0438893 5.5919 0.369768C4.5576 0.695647 3.60035 1.22841 2.77831 1.93567C1.95628 2.64294 1.28662 3.50996 0.810015 4.48403C0.333416 5.45811 0.0598291 6.51892 0.00587866 7.602C-0.0480718 8.68508 0.11874 9.76782 0.496179 10.7844C0.873618 11.8011 1.4538 12.7303 2.20149 13.5158C2.94917 14.3012 3.84873 14.9265 4.84553 15.3536C5.84232 15.7806 6.91554 16.0005 7.99996 16C8.26546 15.9999 8.5308 15.9866 8.79496 15.96C9.00896 15.939 9.21796 15.903 9.42596 15.866C9.46896 15.858 9.51296 15.855 9.55596 15.846C11.3726 15.4867 13.0083 14.5081 14.1839 13.0772C15.3595 11.6463 16.0021 9.85186 16.0021 8C16.0021 6.14814 15.3595 4.35366 14.1839 2.92279C13.0083 1.49191 11.3726 0.51332 9.55596 0.154H9.55496ZM9.66796 15.312C8.63863 15.5469 7.57131 15.5619 6.53581 15.3558C5.50031 15.1498 4.51997 14.7275 3.65894 14.1165C2.7979 13.5055 2.07557 12.7196 1.53919 11.8102C1.00282 10.9008 0.664488 9.88844 0.54634 8.83928C0.428193 7.79012 0.532889 6.72783 0.853579 5.72192C1.17427 4.71601 1.70373 3.78915 2.40731 3.00196C3.1109 2.21477 3.97276 1.585 4.9365 1.15386C5.90025 0.722708 6.94417 0.499897 7.99996 0.5C8.56131 0.499872 9.12087 0.563276 9.66796 0.689C8.39814 1.44085 7.34603 2.51045 6.6152 3.79248C5.88438 5.07452 5.50005 6.52479 5.50005 8.0005C5.50005 9.47621 5.88438 10.9265 6.6152 12.2085C7.34603 13.4906 8.39814 14.5602 9.66796 15.312Z" fill="white"/>
</svg>
