<svg width="16" height="16" viewBox="0 0 16 16" fill="none" xmlns="http://www.w3.org/2000/svg">
<path d="M3.90497 11.6251C4.67252 12.4069 5.6947 12.8934 6.78986 12.9983C6.81831 13.0013 6.84656 13.003 6.87484 13.0047C6.88716 13.0054 6.89948 13.0061 6.91183 13.007C5.9329 12.5394 5.09078 11.8314 4.46545 10.9502C4.33956 10.7742 4.2234 10.5915 4.1175 10.403C3.78368 9.74924 3.66108 9.00935 3.76637 8.28401C3.87166 7.55868 4.19972 6.88311 4.70593 6.34923C5.36132 5.65743 6.29226 5.25554 7.32484 5.22581C8.47626 5.19266 9.48668 5.68364 10.1282 6.52065C10.1348 6.52911 10.1417 6.53775 10.1489 6.54669C10.1515 6.55 10.1542 6.55335 10.157 6.55675C10.1748 6.57945 10.1925 6.60207 10.2095 6.62478C10.229 6.65075 10.2485 6.6768 10.2672 6.70367C10.5187 7.08671 10.6515 7.53446 10.6492 7.99156C10.6495 8.39278 10.5413 8.78675 10.3357 9.13235C10.1302 9.47795 9.83491 9.76252 9.48067 9.95639C9.24069 10.0891 8.97798 10.1765 8.70586 10.2142C8.63899 10.2243 8.57121 10.2302 8.50269 10.2344C8.49578 10.2344 8.4891 10.2346 8.48254 10.2348C8.4762 10.235 8.46997 10.2352 8.46374 10.2352C8.23045 10.2352 8.00113 10.1753 7.7981 10.0614C7.59507 9.94744 7.42524 9.78331 7.30516 9.58497C7.29049 9.56042 7.28398 9.53193 7.28654 9.50351C7.2891 9.47509 7.3006 9.44819 7.31942 9.42661C7.33824 9.40503 7.36343 9.38987 7.39142 9.38326C7.4194 9.37665 7.44878 9.37893 7.47539 9.38978C7.65761 9.46029 7.8542 9.48656 8.04875 9.46639C8.25189 9.44536 8.44646 9.37408 8.6146 9.25908C8.78273 9.14408 8.91905 8.98905 9.01104 8.80822C9.10303 8.62738 9.14775 8.42653 9.14109 8.2241C9.13444 8.02166 9.07662 7.82413 8.97294 7.64962C8.82517 7.40236 8.60165 7.20834 8.33493 7.09583C8.28235 7.07539 8.22831 7.05882 8.17327 7.04626C8.16988 7.04547 8.16648 7.0446 8.16307 7.04373C8.15553 7.04181 8.14793 7.03987 8.14033 7.03875C7.98383 7.00043 7.8232 6.98123 7.662 6.98158C7.36556 6.98138 7.07274 7.04615 6.80449 7.17125C6.53623 7.29635 6.29917 7.47869 6.11026 7.70523C5.81472 8.04818 5.65646 8.48681 5.66554 8.93784C5.67547 9.43684 5.82919 9.92261 6.10853 10.3378C6.10853 10.3378 6.11206 10.3428 6.11626 10.3488C6.13846 10.3807 6.20147 10.4711 6.23354 10.505L6.23431 10.506L6.23692 10.5084C6.8872 11.2741 7.80868 11.9398 8.8672 12.1783C9.15334 12.2404 9.44396 12.2802 9.73638 12.2971C10.6643 11.7108 11.3524 10.8172 11.6786 9.7752C12.0048 8.73319 11.9479 7.61024 11.518 6.60592C11.088 5.6016 10.313 4.78096 9.33047 4.28984C8.34798 3.79871 7.22172 3.66892 6.15183 3.92353C5.08195 4.17813 4.13775 4.80064 3.48702 5.68043C2.83629 6.56021 2.52119 7.64028 2.59772 8.7287C2.67424 9.81713 3.13743 10.8434 3.90497 11.6251Z" fill="white"/>
<path d="M2 0C0.895431 0 0 0.895431 0 2V14C0 15.1046 0.895431 16 2 16H14C15.1046 16 16 15.1046 16 14V2C16 0.895431 15.1046 0 14 0H2ZM13.4127 11.066C13.4841 11.0022 13.558 10.9363 13.6353 10.8682H14.5C14.4172 10.9885 14.3385 11.1059 14.2619 11.2203C13.7996 11.9108 13.4121 12.4897 12.628 12.8998C11.714 13.3779 10.696 13.6275 9.66267 13.6267C9.47235 13.6267 9.28417 13.6185 9.09812 13.6022C7.71666 14.0141 6.23085 13.9098 4.92167 13.309C3.61249 12.7082 2.57068 11.6526 1.99324 10.3417C1.4158 9.03075 1.34275 7.55546 1.78791 6.19476C2.23308 4.83406 3.16559 3.68227 4.40912 2.95718C5.65265 2.23209 7.12101 1.98397 8.53653 2.25973C9.95204 2.53549 11.2166 3.31603 12.0911 4.45373C12.9656 5.59144 13.3894 7.00746 13.2824 8.43404C13.1753 9.86061 12.5449 11.1989 11.5102 12.1957C12.3695 11.9971 12.8027 11.6104 13.4127 11.066Z" fill="white"/>
</svg>
