<svg width="16" height="16" viewBox="0 0 16 16" fill="none" xmlns="http://www.w3.org/2000/svg">
<path d="M14.9357 11.5301C14.0287 12.3289 13.5017 12.8909 12.3203 13.164C13.5937 11.9371 14.3696 10.29 14.5014 8.53421C14.6331 6.77843 14.1115 5.03563 13.0352 3.63538C11.9589 2.23512 10.4025 1.27447 8.66034 0.935065C6.91816 0.595665 5.11096 0.901045 3.58046 1.79346C2.04996 2.68588 0.902247 4.10347 0.354355 5.77818C-0.193537 7.45289 -0.103634 9.26863 0.607064 10.8821C1.31776 12.4955 2.59999 13.7948 4.21129 14.5342C5.82259 15.2737 7.65127 15.402 9.35154 14.895C9.58051 14.9151 9.81212 14.9252 10.0464 14.9252C11.3182 14.9261 12.571 14.619 13.696 14.0306C14.8209 13.4422 15.2827 12.5716 16 11.5301H14.9357ZM6.51059 14.1518C5.1627 14.0227 3.90463 13.4238 2.95997 12.4617C2.0153 11.4996 1.44522 10.2365 1.35103 8.89688C1.25685 7.55728 1.64467 6.22796 2.44556 5.14515C3.24646 4.06234 4.40855 3.29617 5.72533 2.98281C7.04212 2.66945 8.42829 2.8292 9.63751 3.43366C10.8467 4.03811 11.8007 5.04813 12.3298 6.28422C12.8589 7.5203 12.929 8.90239 12.5275 10.1849C12.1261 11.4673 11.2791 12.5671 10.1371 13.2888C9.77719 13.2679 9.4195 13.219 9.06732 13.1425C7.76453 12.8489 6.6304 12.0297 5.83006 11.0872C5.82793 11.0862 5.82691 11.0841 5.8259 11.0831C5.77897 11.0335 5.67822 10.8855 5.67203 10.8773C5.32823 10.3663 5.13904 9.76843 5.12681 9.15427C5.11564 8.59916 5.31042 8.05931 5.67417 7.63722C5.90667 7.3584 6.19844 7.13398 6.5286 6.98001C6.85876 6.82604 7.21916 6.74632 7.584 6.74657C7.7824 6.74614 7.9801 6.76977 8.17271 6.81693C8.18629 6.81894 8.19987 6.82306 8.21325 6.82618C8.281 6.84164 8.3475 6.86203 8.41223 6.88719C8.74049 7.02566 9.0156 7.26445 9.19747 7.56877C9.32507 7.78355 9.39623 8.02667 9.40442 8.27582C9.41262 8.52497 9.35758 8.77217 9.24436 8.99474C9.13114 9.21731 8.96336 9.40811 8.75643 9.54965C8.54949 9.69118 8.31002 9.77892 8.06 9.80479C7.82056 9.82962 7.5786 9.7973 7.35432 9.71051C7.32157 9.69716 7.28542 9.69435 7.25097 9.70248C7.21653 9.71062 7.18553 9.72928 7.16236 9.75584C7.1392 9.7824 7.12504 9.81551 7.12189 9.85048C7.11874 9.88546 7.12676 9.92053 7.14481 9.95074C7.29261 10.1949 7.50162 10.3969 7.7515 10.5371C8.00139 10.6773 8.28363 10.751 8.57076 10.751C8.58636 10.751 8.60197 10.75 8.6187 10.75C8.70303 10.7449 8.78645 10.7376 8.86876 10.7252C9.20367 10.6788 9.527 10.5712 9.82236 10.4079C10.2583 10.1693 10.6218 9.81902 10.8748 9.39367C11.1277 8.96831 11.261 8.48344 11.2606 7.98962C11.2634 7.42704 11.0999 6.87596 10.7904 6.40452C10.7673 6.37145 10.7434 6.33939 10.7194 6.30743C10.6985 6.27948 10.6766 6.25164 10.6547 6.2237C10.6423 6.20822 10.6305 6.19354 10.6194 6.17927C9.82976 5.14911 8.58616 4.54482 7.16903 4.58563C5.89817 4.62222 4.75239 5.11684 3.94576 5.96829C3.32273 6.62538 2.91896 7.45684 2.78938 8.34957C2.6598 9.24229 2.81069 10.1529 3.22153 10.9576C3.35188 11.1896 3.49484 11.4144 3.64978 11.631C4.41942 12.7156 5.45588 13.587 6.66071 14.1625C6.61064 14.159 6.56087 14.157 6.51059 14.1518Z" fill="white"/>
</svg>
